<svg xmlns="http://www.w3.org/2000/svg" id="c0e2649d-a4c6-46ee-95f7-01bebf306c1c" data-name="Layer 1" viewBox="0 0 500 434"><defs><style>.e3218ecf-c155-4734-beca-c9c26cc4e541{fill:#eef;}.fa6ae671-2be1-454c-aebc-db161f974f3a{fill:#fff;}.be7bad39-4b45-4e95-9c5d-e6e463b8b5ad{fill:#4531d9;}</style></defs><title>features1</title><path class="e3218ecf-c155-4734-beca-c9c26cc4e541" d="M175.6,20.6c-17.2,4.3-91.4,22.9-132,93.3C11.9,169-3.9,264,45,301.9c46.6,36.2,126.9.7,167.3-28.7,88.4-64.3,126.2-201.4,81.3-246C264.5-1.7,205.4,13.1,175.6,20.6Z"></path><rect class="fa6ae671-2be1-454c-aebc-db161f974f3a" x="120.2" y="100.6" width="262" height="247.01"></rect><g id="9ffd3770-3287-43e6-bc50-cb3a7accb31b" data-name="&lt;Group&gt;"><g id="b237a057-4790-459e-a5f5-6b86151cdfc3" data-name="&lt;Group&gt;"><path id="4986387f-abe9-4bb3-a959-d59670a57322" data-name="&lt;Compound Path&gt;" class="be7bad39-4b45-4e95-9c5d-e6e463b8b5ad" d="M463.9,261H436V220.9a22.3,22.3,0,0,0-18.1-21.9V121.5a26.8,26.8,0,0,0-26.7-26.7H295.5a7.4,7.4,0,1,0,0,14.8h95.7a11.9,11.9,0,0,1,11.9,11.9v77.2H306.8a22.3,22.3,0,0,0-22.3,22.3v46.9H121V121.5a11.9,11.9,0,0,1,11.9-11.9h95.7a7.4,7.4,0,0,0,0-14.8H132.9a26.8,26.8,0,0,0-26.7,26.7V291.6a26.8,26.8,0,0,0,26.7,26.7h91.5v26.8a42,42,0,0,1-19.8,35.7,7.4,7.4,0,0,0,3.9,13.7H463.9a22.3,22.3,0,0,0,22.3-22.3V283.3A22.3,22.3,0,0,0,463.9,261h0ZM306.8,213.5H413.7a7.4,7.4,0,0,1,7.4,7.4V261H410.5a22.3,22.3,0,0,0-22.3,22.3v89.1a22.2,22.2,0,0,0,1.3,7.4H306.8a7.4,7.4,0,0,1-7.4-7.4V220.9a7.4,7.4,0,0,1,7.4-7.4h0ZM121,291.6v-8.9H284.6v20.8H132.9A11.9,11.9,0,0,1,121,291.6Zm118.3,53.5V318.4h45.3v54a22.2,22.2,0,0,0,1.3,7.4H227.7a56.8,56.8,0,0,0,11.6-34.6h0Zm232,27.2a7.4,7.4,0,0,1-7.4,7.4H410.5a7.4,7.4,0,0,1-7.4-7.4V283.3a7.4,7.4,0,0,1,7.4-7.4h53.4a7.4,7.4,0,0,1,7.4,7.4v89.1Z"></path><path id="80f565c9-e8ea-494d-8770-679ceca10548" data-name="&lt;Compound Path&gt;" class="be7bad39-4b45-4e95-9c5d-e6e463b8b5ad" d="M149.2,139.7a7.4,7.4,0,0,0-7.4,7.4v83.1a7.4,7.4,0,0,0,7.4,7.4h65.3a7.4,7.4,0,0,0,7.4-7.4V147.2a7.4,7.4,0,0,0-7.4-7.4H149.2Zm57.9,83.1H156.7V154.6h50.5v68.3Z"></path><path id="41688219-50c0-479a-9dd7-5d5cc079a34a" data-name="&lt;Path&gt;" class="be7bad39-4b45-4e95-9c5d-e6e463b8b5ad" d="M250.2,154.6h75a7.4,7.4,0,0,0,0-14.8h-75A7.4,7.4,0,0,0,250.2,154.6Z"></path><path id="975e985a-5532-4c9a-ba23-c4ba1f92dda8" data-name="&lt;Path&gt;" class="be7bad39-4b45-4e95-9c5d-e6e463b8b5ad" d="M250.2,225.8a7.4,7.4,0,1,0-5.2-2.2A7.5,7.5,0,0,0,250.2,225.8Z"></path><path id="198d1915-2b42-4bda-8fb5-843407c58079" data-name="&lt;Path&gt;" class="be7bad39-4b45-4e95-9c5d-e6e463b8b5ad" d="M250.2,190.2H278a7.4,7.4,0,1,0,0-14.8H250.2A7.4,7.4,0,0,0,250.2,190.2Z"></path><path id="7bc8de00-1d94-41c8-9f13-9425ceee7cbf" data-name="&lt;Path&gt;" class="be7bad39-4b45-4e95-9c5d-e6e463b8b5ad" d="M437.2,350.1a7.4,7.4,0,1,0,5.2,2.2A7.5,7.5,0,0,0,437.2,350.1Z"></path><path id="7582ff47-4189-4207-9b1e-7c4c3724e7a3" data-name="&lt;Path&gt;" class="be7bad39-4b45-4e95-9c5d-e6e463b8b5ad" d="M360.3,364.9a7.4,7.4,0,1,0-5.2-2.2A7.5,7.5,0,0,0,360.3,364.9Z"></path><path id="111dc752-88a1-4e8e-a4b8-746474b5374b" data-name="&lt;Path&gt;" class="be7bad39-4b45-4e95-9c5d-e6e463b8b5ad" d="M262.1,109.6a7.4,7.4,0,1,0-5.2-2.2A7.5,7.5,0,0,0,262.1,109.6Z"></path></g></g></svg>