<svg xmlns="http://www.w3.org/2000/svg" id="ca7f52ee-b731-474e-a730-59e6379f2f67" data-name="Layer 1" viewBox="0 0 500 434"><defs><style>.ece06047-e2f3-4b27-8ee7-15e4f1675f41{fill:#eef;}.e4bbc5e8-e2ba-4202-aa10-25b5b54b02b4{fill:#fff;}.f9fad57f-8b1c-4fa0-b0fe-00d55561e77d{fill:#4531d9;}</style></defs><title>features9</title><path class="ece06047-e2f3-4b27-8ee7-15e4f1675f41" d="M175.6,20.6c-17.2,4.3-91.4,22.9-132,93.3C11.9,169-3.9,264,45,301.9c46.6,36.2,126.9.7,167.3-28.7,88.4-64.3,126.2-201.4,81.3-246C264.5-1.7,205.4,13.1,175.6,20.6Z"></path><polygon class="e4bbc5e8-e2ba-4202-aa10-25b5b54b02b4" points="141.6 327.7 138.6 167.2 149.6 145.2 174.1 145.2 182.1 145.2 190.4 89.7 325.6 89.7 335.9 285.9 141.6 327.7"></polygon><path class="f9fad57f-8b1c-4fa0-b0fe-00d55561e77d" d="M435.2,139.8H418.9v-49a5.4,5.4,0,0,0-5.4-5.4H185a5.4,5.4,0,0,0-5.4,5.4v49H163.2A27.2,27.2,0,0,0,136,167V341.1a27.2,27.2,0,0,0,27.2,27.2H272v16.3a16.3,16.3,0,0,1-16.3,16.3,5.4,5.4,0,0,0,0,10.9h87a5.4,5.4,0,1,0,0-10.9,16.3,16.3,0,0,1-16.3-16.3V368.3H435.2a27.2,27.2,0,0,0,27.2-27.2V167A27.2,27.2,0,0,0,435.2,139.8Zm0,10.9A16.3,16.3,0,0,1,451.6,167V324.8H440.7V172.4a10.9,10.9,0,0,0-10.9-10.9H418.9V150.7h16.3Zm-5.4,174.1H418.9V172.4h10.9V324.8ZM408,96.3V324.8H190.4V96.3H408ZM179.5,324.8H168.7V172.4h10.9V324.8ZM163.2,150.7h16.3v10.9H168.7a10.9,10.9,0,0,0-10.9,10.9V324.8H146.9V167A16.3,16.3,0,0,1,163.2,150.7ZM321,400.9H277.5a27.1,27.1,0,0,0,5.5-16.3V368.3h32.6v16.3A27.1,27.1,0,0,0,321,400.9Zm114.2-43.5h-272a16.3,16.3,0,0,1-16.3-16.3v-5.4H451.6v5.4A16.3,16.3,0,0,1,435.2,357.4Z"></path><circle class="f9fad57f-8b1c-4fa0-b0fe-00d55561e77d" cx="299.2" cy="346.5" r="5.4"></circle><circle class="f9fad57f-8b1c-4fa0-b0fe-00d55561e77d" cx="206.7" cy="112.6" r="5.4"></circle><circle class="f9fad57f-8b1c-4fa0-b0fe-00d55561e77d" cx="223.1" cy="112.6" r="5.4"></circle><circle class="f9fad57f-8b1c-4fa0-b0fe-00d55561e77d" cx="239.4" cy="112.6" r="5.4"></circle><path class="f9fad57f-8b1c-4fa0-b0fe-00d55561e77d" d="M201.3,128.9H402.6v10.9H201.3V128.9Z"></path><path class="f9fad57f-8b1c-4fa0-b0fe-00d55561e77d" d="M228.5,286.7h76.2V275.8H228.5a16.3,16.3,0,0,1-15.4-10.9h48V254.1H223.1a76.2,76.2,0,1,1,152.3,0v5.4a5.4,5.4,0,0,0,5.4,5.4h4.5a16.4,16.4,0,0,1-7.2,8.7l5.4,9.4a27.3,27.3,0,0,0,13.6-23.6,5.4,5.4,0,0,0-5.4-5.4h-5.4a87.2,87.2,0,0,0-70.7-85.5v-7a16.3,16.3,0,0,0-32.6,0v7a87.2,87.2,0,0,0-70.7,85.5h-5.4a5.4,5.4,0,0,0-5.4,5.4A27.2,27.2,0,0,0,228.5,286.7Zm65.3-125.1a5.4,5.4,0,0,1,10.9,0v5.6l-5.4-.2-5.4.2v-5.6Z"></path><path class="f9fad57f-8b1c-4fa0-b0fe-00d55561e77d" d="M378.8,293.3l-19.4-15.5,9-9a5.4,5.4,0,0,0-2.3-9.1l-54.4-16.3a5.4,5.4,0,0,0-6.8,6.8l16.3,54.4a5.4,5.4,0,0,0,9.1,2.3l9-9,15.5,19.4a5.4,5.4,0,0,0,3.9,2h0.3a5.4,5.4,0,0,0,3.8-1.6l16.3-16.3a5.4,5.4,0,0,0,0-7.7l-0.4-.4h0Zm-19.3,12.4L344,286.3a5.4,5.4,0,0,0-3.9-2h-0.3a5.4,5.4,0,0,0-3.8,1.6l-6.9,6.9-10.8-36,36,10.8-6.9,6.9a5.4,5.4,0,0,0,0,7.7l0.4,0.4L367.2,298Z"></path><path class="f9fad57f-8b1c-4fa0-b0fe-00d55561e77d" d="M284.5,230.7l7.7-7.7L303,233.9l-7.7,7.7Z"></path><path class="f9fad57f-8b1c-4fa0-b0fe-00d55561e77d" d="M267.1,266.6l2.8-10.5,14.9,4-2.8,10.5Z"></path><path class="f9fad57f-8b1c-4fa0-b0fe-00d55561e77d" d="M314.2,210.3l10.5-2.8,4,14.9-10.5,2.8Z"></path></svg>