<svg xmlns="http://www.w3.org/2000/svg" id="62a498f0-c080-4386-a290-cbe4f417c107" data-name="Layer 1" viewBox="0 0 500 434"><defs><style>.\34 43c1deb-55b0-4205-8847-6d883dfe6de9{fill:#eef;}.c66a1181-884c-490c-965e-bfbc4b1c08a4{fill:#fff;}.f1804f22-d5cd-4700-8480-eeeabeeded05{fill:#4531d9;stroke:#4531d9;stroke-miterlimit:10;stroke-width:3px;}</style></defs><title>features8</title><path class="443c1deb-55b0-4205-8847-6d883dfe6de9" d="M175.6,20.6c-17.2,4.3-91.4,22.9-132,93.3C11.9,169-3.9,264,45,301.9c46.6,36.2,126.9.7,167.3-28.7,88.4-64.3,126.2-201.4,81.3-246C264.5-1.7,205.4,13.1,175.6,20.6Z"></path><path class="c66a1181-884c-490c-965e-bfbc4b1c08a4" d="M147.6,322.3V97.9l5.8-10H346.3l9.3,148.7s-78.6,94-83.3,94S147.6,322.3,147.6,322.3Z"></path><path class="f1804f22-d5cd-4700-8480-eeeabeeded05" d="M148.5,191.5a5,5,0,0,0,5-5V159.8H402.9v77.8a5,5,0,1,0,9.9,0V96.1a11.6,11.6,0,0,0-11.6-11.6H155.1a11.6,11.6,0,0,0-11.6,11.6v90.4a5,5,0,0,0,5,5h0Zm6.6-97H401.3a1.7,1.7,0,0,1,1.7,1.7v53.8H153.5V96.1a1.7,1.7,0,0,1,1.7-1.7h0Z"></path><circle class="f1804f22-d5cd-4700-8480-eeeabeeded05" cx="180.2" cy="122" r="9.7"></circle><circle class="f1804f22-d5cd-4700-8480-eeeabeeded05" cx="209.5" cy="122" r="9.7"></circle><circle class="f1804f22-d5cd-4700-8480-eeeabeeded05" cx="238.9" cy="122" r="9.7"></circle><path class="f1804f22-d5cd-4700-8480-eeeabeeded05" d="M334.3,252.7a17.8,17.8,0,0,0-3.7-11,18.3,18.3,0,0,0-6-23.2,17.5,17.5,0,0,0-10-3.1H287c0.4-3,.8-5.9,1.1-8.9,0.7-7.8.7-16.9-4.5-25.4s-15.5-13.1-25.7-9.5c-5,1.8-5.3,5.7-5.1,7.9,0.6,5.5,1.3,12,1.7,18.5a5.8,5.8,0,0,1-.4,2.7c-3.4,6.5-14.9,28.5-17.3,33H221a10.6,10.6,0,0,0-10.7,10.6v48a10.6,10.6,0,0,0,10.6,10.6s67.1,0,83.4-.1a16.7,16.7,0,0,0,16.3-18.5v-0.8c7.1-4.4,8.8-11.8,8-18.4a16,16,0,0,0,5.9-12.4h0Zm-13.3,5.5a6.3,6.3,0,0,0-2.7,6.7c0.9,3.7.8,8.6-4.5,10.8a6.3,6.3,0,0,0-3.6,7.4c0.9,2.6.7,5.3-1.2,7.4a6.5,6.5,0,0,1-4.9,2.3c-16.5.2-83.3,0.1-83.3,0.1l-0.5-.2a0.7,0.7,0,0,1-.2-0.5v-48a0.7,0.7,0,0,1,.2-0.5l0.5-.2H239a6.2,6.2,0,0,0,5.6-3.4c2.7-5.2,14.9-28.5,18.3-35a15.6,15.6,0,0,0,1.5-7.9c-0.4-5.9-1-11.7-1.5-16.9,6.2-1.4,10.1,2.3,12.3,5.8,3.7,6.1,3.7,13.2,3.1,19.3-0.3,3.1-.7,6.2-1.2,9.5s-1.1,5.9,1.1,8.1a6.3,6.3,0,0,0,4.7,2.1h31.8a8.1,8.1,0,0,1,7.9,6.8,8.3,8.3,0,0,1-1.4,6.2,6.3,6.3,0,0,0,.9,8.6,7.9,7.9,0,0,1,2.3,5.8,6.7,6.7,0,0,1-3.4,5.5h0Z"></path><path class="f1804f22-d5cd-4700-8480-eeeabeeded05" d="M446.2,342.8a35.2,35.2,0,0,0-22.4,8l-11.1-10.2V299.8a5,5,0,1,0-9.9,0v31.6L389,318.5a30.4,30.4,0,0,0,1.5-31l39.4-30a24.7,24.7,0,1,0-6-7.9l-39.4,30a30.5,30.5,0,1,0-2.2,46.1l20.6,19.1v1.7a1.7,1.7,0,0,1-1.7,1.7H155.1a1.7,1.7,0,0,1-1.7-1.7V212.6a5,5,0,0,0-9.9,0V346.5a11.6,11.6,0,0,0,11.6,11.6H401.3a11.5,11.5,0,0,0,9.9-5.6l6,5.6a35.4,35.4,0,1,0,29.1-15.2h0Zm0-118.8a14.9,14.9,0,1,1-14.9,14.9A14.9,14.9,0,0,1,446.2,224h0ZM343.1,301.8a20.5,20.5,0,1,1,20.5,20.5A20.6,20.6,0,0,1,343.1,301.8ZM446.2,403.7a25.5,25.5,0,1,1,25.5-25.5A25.5,25.5,0,0,1,446.2,403.7Z"></path></svg>