<svg xmlns="http://www.w3.org/2000/svg" id="f55df9cf-72aa-4aa3-84fc-e5eccc7f8974" data-name="Layer 1" viewBox="0 0 500 434"><defs><style>.\32 792e642-8084-4a5e-81bc-d23b5b430f34{fill:#eef;}.\31 bc8ed29-7870-4b7e-9ae6-4708b67251a8{fill:#fff;}.\35 35a21b2-04e9-4f95-9ee7-85e84dafa9e9{fill:#4531d9;}</style></defs><title>features3</title><path class="2792e642-8084-4a5e-81bc-d23b5b430f34" d="M175.6,20.6c-17.2,4.3-91.4,22.9-132,93.3C11.9,169-3.9,264,45,301.9c46.6,36.2,126.9.7,167.3-28.7,88.4-64.3,126.2-201.4,81.3-246C264.5-1.7,205.4,13.1,175.6,20.6Z"></path><polygon class="1bc8ed29-7870-4b7e-9ae6-4708b67251a8" points="132.3 219.9 189.6 219.9 189.6 87.7 197.8 71.9 232.3 71.9 359.6 69.2 350.3 320.6 124.2 342.6 127 281.9 132.3 219.9"></polygon><rect class="535a21b2-04e9-4f95-9ee7-85e84dafa9e9" x="277.2" y="87.7" width="11.8" height="11.77"></rect><rect class="535a21b2-04e9-4f95-9ee7-85e84dafa9e9" x="300.7" y="87.7" width="11.8" height="11.77"></rect><rect class="535a21b2-04e9-4f95-9ee7-85e84dafa9e9" x="289" y="381.9" width="11.8" height="11.77"></rect><rect class="535a21b2-04e9-4f95-9ee7-85e84dafa9e9" x="159.5" y="234.8" width="11.8" height="11.77"></rect><rect class="535a21b2-04e9-4f95-9ee7-85e84dafa9e9" x="347.8" y="170.1" width="11.8" height="11.77"></rect><rect class="535a21b2-04e9-4f95-9ee7-85e84dafa9e9" x="341.9" y="193.6" width="100" height="11.77"></rect><rect class="535a21b2-04e9-4f95-9ee7-85e84dafa9e9" x="341.9" y="217.2" width="88.3" height="11.77"></rect><rect class="535a21b2-04e9-4f95-9ee7-85e84dafa9e9" x="377.2" y="170.1" width="64.7" height="11.77"></rect><path class="535a21b2-04e9-4f95-9ee7-85e84dafa9e9" d="M465.5,146.6H406.6V87.7a23.5,23.5,0,0,0-23.5-23.5H206.6a23.5,23.5,0,0,0-23.5,23.5V211.3h-53a5.9,5.9,0,0,0-5.9,5.9v94.1a5.9,5.9,0,0,0,5.9,5.9h53v76.5a23.5,23.5,0,0,0,23.5,23.5H383.1a23.5,23.5,0,0,0,23.5-23.5v-127l14.2-14.2h44.6a5.9,5.9,0,0,0,5.9-5.9V152.5A5.9,5.9,0,0,0,465.5,146.6ZM194.8,87.7A11.8,11.8,0,0,1,206.6,76H383.1a11.8,11.8,0,0,1,11.8,11.8v23.5h-200V87.7ZM136,305.4V223.1H271.3v82.4H241.9a5.9,5.9,0,0,0-4.2,1.7l-13.5,13.5-13.5-13.5a5.9,5.9,0,0,0-4.2-1.7H136Zm258.9,88.3a11.8,11.8,0,0,1-11.8,11.8H206.6a11.8,11.8,0,0,1-11.8-11.8V370.2h200v23.5Zm0-35.3h-200V317.2h9.3l15.9,15.9a5.9,5.9,0,0,0,8.3,0l15.9-15.9h32.9a5.9,5.9,0,0,0,5.9-5.9V217.2a5.9,5.9,0,0,0-5.9-5.9H194.8V123h200v23.5H318.4a5.9,5.9,0,0,0-5.9,5.9v94.1a5.9,5.9,0,0,0,5.9,5.9h62.3l14.2,14.2v91.7Zm64.7-117.7H418.4a5.9,5.9,0,0,0-4.2,1.7l-13.5,13.5-13.5-13.5a5.9,5.9,0,0,0-4.2-1.7H324.3V158.3H459.6v82.4Z"></path><rect class="535a21b2-04e9-4f95-9ee7-85e84dafa9e9" x="153.6" y="258.4" width="100" height="11.77"></rect><rect class="535a21b2-04e9-4f95-9ee7-85e84dafa9e9" x="153.6" y="281.9" width="88.3" height="11.77"></rect><rect class="535a21b2-04e9-4f95-9ee7-85e84dafa9e9" x="183.1" y="234.8" width="70.6" height="11.77"></rect></svg>