<svg xmlns="http://www.w3.org/2000/svg" id="f7221b35-e1f4-4d13-886a-38bf9b1cba82" data-name="Layer 1" viewBox="0 0 500 434"><defs><style>.\32 40716f9-04ed-43af-97c1-3fc00cd208f1{fill:#eef;}.\39 536203b-7812-44c5-b0ee-7c951601f807{fill:#fff;}.ee945db5-ac6b-40fd-9d2c-a062b42561c2{fill:#4531d9;}</style></defs><title>features7</title><path class="240716f9-04ed-43af-97c1-3fc00cd208f1" d="M175.6,20.6c-17.2,4.3-91.4,22.9-132,93.3C11.9,169-3.9,264,45,301.9c46.6,36.2,126.9.7,167.3-28.7,88.4-64.3,126.2-201.4,81.3-246C264.5-1.7,205.4,13.1,175.6,20.6Z"></path><path class="9536203b-7812-44c5-b0ee-7c951601f807" d="M201,298.6l-9.9-16.7L180,258.6l8.3-10.7,4.7-13.7,3.8-5.3,7.5-2.7,20.7-15,30-22.7,57.6-72.3-7.3,67.9s-51.7,130.4-52,129.9S201,298.6,201,298.6Z"></path><g id="4236d945-d444-42cd-8f54-b2b39b7c344b" data-name="surface1"><path class="ee945db5-ac6b-40fd-9d2c-a062b42561c2" d="M399.3,141.2a5.1,5.1,0,0,0,7.1,1.7l27.8-17.1a5.1,5.1,0,1,0-5.4-8.7L401,134.2A5.1,5.1,0,0,0,399.3,141.2Z"></path><path class="ee945db5-ac6b-40fd-9d2c-a062b42561c2" d="M468.3,175.3l-40.8-4a5.1,5.1,0,1,0-1,10.2l40.8,4h0.5A5.1,5.1,0,0,0,468.3,175.3Z"></path><path class="ee945db5-ac6b-40fd-9d2c-a062b42561c2" d="M378.5,105.4a5.1,5.1,0,0,0,6.6-2.9L400,64.3a5.1,5.1,0,0,0-9.6-3.7L375.6,98.8A5.1,5.1,0,0,0,378.5,105.4Z"></path><path class="ee945db5-ac6b-40fd-9d2c-a062b42561c2" d="M342.3,77.1a11.9,11.9,0,0,0-16.4-3.9L319.8,77a11.9,11.9,0,0,0-3.9,16.4l3.5,5.7L238.7,199l-17,10.5a5.1,5.1,0,0,0,5.4,8.7l13.4-8.3,26.1,42.4a21,21,0,0,0-11,2.3h-0.2l-1.4.8L238.8,265a27.5,27.5,0,0,0-9.1,9.3L226,280l-2.8,4.2H223l-0.6-.3h-0.1l-0.7-.4h-0.1l-0.6-.5h-0.1l-0.5-.6h-0.1l-0.5-.7-22.2-35.9a7.5,7.5,0,0,1,2.4-10.3l6.6-4.1a5.1,5.1,0,1,0-5.4-8.7l-6.6,4.1a17.7,17.7,0,0,0-7.8,19.9l-4.9,3a14.1,14.1,0,0,0-4.6,19.4l12.5,20.3a14,14,0,0,0,8.7,6.3,14.2,14.2,0,0,0,3.3.4,14,14,0,0,0,7.4-2.1l4.9-3a17.7,17.7,0,0,0,3.4,2.4l-14.2,21.5-3.4,2.3a6.2,6.2,0,0,0-6.8.8l-8.8,7.4a6.2,6.2,0,0,0-6.9.1l-0.3.2-49.8,39.3a12,12,0,0,0-4.6,9.5v16a12.1,12.1,0,0,0,12.1,12.1h81.4a12,12,0,0,0,9.4-4.5l6.7-8.4a6.2,6.2,0,0,0,1.5-4.8l9.1-7.6a6.2,6.2,0,0,0,1.9-2.8l20.9,4.3h2.8c5,0,9.9-.5,15.1-3.6L304.6,362h1.1a16.6,16.6,0,0,0,8.7-2.5l16.9-10.4a16.7,16.7,0,0,0-1.2-29.2,16.9,16.9,0,0,0-10.9-24.3,16.9,16.9,0,0,0-11.9-19.8,16.9,16.9,0,0,0-1.9-13.1,17.2,17.2,0,0,0-2.2-2.9L405,237.8l3.5,5.7a11.9,11.9,0,0,0,16.4,3.9l6.1-3.8a11.9,11.9,0,0,0,3.9-16.4ZM203.7,284.7a3.8,3.8,0,0,1-5.2-1.2L186,263.2a3.8,3.8,0,0,1,1.2-5.2l4.4-2.7L208.1,282ZM217.5,391a1.8,1.8,0,0,1-1.4.7H134.7a1.8,1.8,0,0,1-1.8-1.8v-16a1.8,1.8,0,0,1,.7-1.4l46.7-36.8L222.4,385ZM228,375.7l-36.9-43.3,5.5-4.6,36.6,43.5Zm50.3-9.9c-3.1,1.9-6.1,2.2-11,2.2L241,362.6a5.1,5.1,0,0,0-1.9,0l-32.3-38.3,2.9-2H210l0.3-.3h0.1l0.3-.3h0.1l0.3-.4h0.1l27.1-40.9,0.2-.3a16.8,16.8,0,0,1,5.7-5.8l15.3-9.5,0.9-.5,0.4-.2,0.5-.2,0.5-.2h0.3l0.7-.2h0l2.5-.3h2l1,0.2h0.4l0.5,0.2h0.4l0.5,0.2,0.3,0.2,0.5,0.3,0.3,0.2,0.5,0.3,0.3,0.2,0.4,0.4a9.9,9.9,0,0,1,1.8,2.2l0.4,0.6,5.5,8.9,6.9,11.2,1.7,2.9,0.4,0.8a4.8,4.8,0,0,1,.1,2.8,5.3,5.3,0,0,1-2.4,3.3l-3.1,1.9h0l-0.7.3h-0.1l-0.7.2h-2.4l-0.7-.2H279l-1.3-.8h0l-0.6-.5h0l-0.4-.6-5.1-8.4a13.6,13.6,0,0,0-8.5-6.2,14,14,0,0,0-10.7,1.8,5.1,5.1,0,0,0-2.4,3.7l-0.2,1.3-0.2.9v0.3l-0.3,1.1h0a21.7,21.7,0,0,1-2.4,5.5h0a24.1,24.1,0,0,1-8.1,7.8,5.1,5.1,0,0,0,5.3,8.8,37.5,37.5,0,0,0,6.7-5.1L272,343.6a21.3,21.3,0,0,0,17.8,9.7h1.1l0.5,0.8a16.9,16.9,0,0,0,2.1,2.7Zm4.4-37.7h0l0.3,0.7h0l0.3,0.6h0.1l0.3,0.6v0.2l0.4,0.7,0.8,1.2,0.3,0.4,0.6,0.7,0.4,0.5,0.3,0.3,1.3,1.2H288a16.7,16.7,0,0,0,2.8,1.8,16.9,16.9,0,0,0-1.8,5.6,10.9,10.9,0,0,1-8.5-4.9L257,300.9a33,33,0,0,0,2.5-7.2h1.1a3.4,3.4,0,0,1,2.1,1.5l5.1,8.4h0l0.8,1.2,0.7,0.8,0.2,0.3h0l0.3,1.1v0.3l0.4,1.2h0l0.5,1v0.3l0.6,1.1a16.8,16.8,0,0,0,10.3,7.6A16.9,16.9,0,0,0,282.6,328.1Zm3.3-61.1,1.7-1.1a6.7,6.7,0,1,1,7,11.4l-1.7,1-5.1-8.3Zm38.2,61.6a6.5,6.5,0,0,1,1.9,11.9L309,350.8a6.4,6.4,0,0,1-4.5.8h-0.4a6.5,6.5,0,0,1-4.8-5h0a6.5,6.5,0,0,1,1.7-5.8h0.1l0.2-.2,0.2-.2h0.2l0.5-.3h0l3.4-2.1,1.7-.9,13-7.9A6.5,6.5,0,0,1,324.1,328.6Zm-11.8-22.5a6.7,6.7,0,0,1,6.3,11.7l-3.1,1.9-1.8.9L301,328.5a6.7,6.7,0,0,1-7-1.3h0l-0.4-.4h-0.1l-0.3-.3-0.4-.5-0.3-.6v-0.2l-0.2-.4v-2c0-.1,0-0.3,0-0.4s0-.1,0-0.2v-1a6.7,6.7,0,0,1,2.1-3.6h0.1l0.2-.2,0.5-.3,16.6-10.2Zm-8-20.5a6.7,6.7,0,0,1,2.5,11.8l-0.5.3-12.9,7.9h0.1l0.7-.6,0.4-.4,0.6-.6,0.4-.4,0.5-.7,0.4-.5,0.5-.7,0.3-.5,0.4-.8,0.2-.5,0.4-.9,0.2-.4,0.4-1.4c0.1-.5.2-0.9,0.3-1.4v-0.4c0-.3.1-0.6,0.1-0.9s0-.3,0-0.5,0-.6,0-0.9V291l-0.2-1v-0.4l-0.4-1.3v-0.3l-0.4-.9,1.2-.7A6.6,6.6,0,0,1,304.4,285.7Zm122-51.8a1.6,1.6,0,0,1-.7,1l-6.1,3.8a1.6,1.6,0,0,1-2.3-.5L352.6,133.4a5.1,5.1,0,1,0-8.7,5.4l55.4,89.8L280,254.5l-31.6-51.2,76.7-94.9,6.2,10A5.1,5.1,0,1,0,340,113L324.6,88a1.6,1.6,0,0,1,.5-2.3l6.1-3.8a1.6,1.6,0,0,1,2.3.5l92.6,150.1A1.6,1.6,0,0,1,426.4,233.9Z"></path></g></svg>