<svg xmlns="http://www.w3.org/2000/svg" id="05bfeb92-9b94-484f-a394-43c3e8411143" data-name="Layer 1" viewBox="0 0 500 434"><defs><style>.\32 c15ddfd-30cc-4472-8a88-3a1dd492c854{fill:#eef;}.c0dbfc54-ced8-4b48-8dd9-c939f3d156a7{fill:#fff;}.\33 62d4d4a-4481-427b-831c-317fcd15cd8f{fill:#4531d9;}</style></defs><title>features2</title><path class="2c15ddfd-30cc-4472-8a88-3a1dd492c854" d="M175.6,20.6c-17.2,4.3-91.4,22.9-132,93.3C11.9,169-3.9,264,45,301.9c46.6,36.2,126.9.7,167.3-28.7,88.4-64.3,126.2-201.4,81.3-246C264.5-1.7,205.4,13.1,175.6,20.6Z"></path><rect class="c0dbfc54-ced8-4b48-8dd9-c939f3d156a7" x="180.2" y="103.6" width="262" height="247.01"></rect><path class="362d4d4a-4481-427b-831c-317fcd15cd8f" d="M427.9,120.1H395V102.5H174.2v45.4h-6.5a30.4,30.4,0,0,0,0,60.7h6.5v55.6h-6.5a30.4,30.4,0,0,0,0,60.7h6.5v32.2a30.3,30.3,0,0,0,30.2,30.2H395v-34h32.9V120.1Zm-17,17v55H395v-55h15.9Zm0,72.1v55H395v-55h15.9ZM167.7,191.6c-17.7-.7-17.7-25.9,0-26.7h6.5v26.7h-6.5Zm23.6-26.7h23.3v-17H191.2V119.5H377.9V336.3H191.2v-55h23.3v-17H191.2V164.9Zm-23.6,143c-17.7-.7-17.7-25.9,0-26.7h6.5v26.7h-6.5Zm36.8,62.4a13.2,13.2,0,0,1-13.2-13.2v-3.8H377.9v17H204.4Zm190.5-34v-55h15.9v55H395Z"></path><path class="362d4d4a-4481-427b-831c-317fcd15cd8f" d="M330.8,260.7A46,46,0,0,0,308.6,222c19-20.3,4.3-54.4-23.8-54.3s-42.8,34-23.8,54.3a46,46,0,0,0-22.2,38.7v8.6H331v-8.6Zm-61.3-60.6a15.3,15.3,0,0,1,15.3-15.3c20.3,0.8,20.3,29.8,0,30.6a15.3,15.3,0,0,1-15.3-15.3h0Zm-12.1,52.2c9-26.3,45.9-26.3,54.9,0H257.4Z"></path></svg>