<svg xmlns="http://www.w3.org/2000/svg" id="6d5f1343-e2fa-417e-893f-05f2b8d3847f" data-name="Layer 1" viewBox="0 0 500 434"><defs><style>.cb10e47a-7150-4afa-8054-c3356128cdca{fill:#eef;}.f4590081-4167-4d11-ae59-caaf20c8c917{fill:#fff;}.\31 adb2efb-b21a-4d8c-80a4-74478dec1d70{fill:#4531d9;}</style></defs><title>features6</title><path class="cb10e47a-7150-4afa-8054-c3356128cdca" d="M175.6,20.6c-17.2,4.3-91.4,22.9-132,93.3C11.9,169-3.9,264,45,301.9c46.6,36.2,126.9.7,167.3-28.7,88.4-64.3,126.2-201.4,81.3-246C264.5-1.7,205.4,13.1,175.6,20.6Z"></path><path class="f4590081-4167-4d11-ae59-caaf20c8c917" d="M136.3,277.5L130,205.2l12.8-33.9,12.8-4.9,17.3-2.9,8.4,47.6-11.1,26.7-7.1,14L177.8,289l15.8-15.1,36-32.7,36.7-16-42.6-2.7-7.4-18s-2-96-1.3-98,2-28.7,2-28.7H338.3s46,151.5,46,152.8-26,149.2-32.3,151.9-129,11.3-137,9.3-54.7-38-56-48S136.3,277.5,136.3,277.5Z"></path><path class="1adb2efb-b21a-4d8c-80a4-74478dec1d70" d="M176.1,341L207,356.5v38.4a6.4,6.4,0,0,0,6.4,6.4h68a6.4,6.4,0,0,0,6.4-6.4V307.3a38,38,0,0,0-34.2-37.9c-0.1,0-27.1-4.2-39.7-16.8l-14.4-14.4a25.5,25.5,0,0,0-18.1-7.5V179.3a25.7,25.7,0,0,0-51.3,0v87.1A83.4,83.4,0,0,0,176.1,341h0ZM142.9,179.3a12.8,12.8,0,0,1,25.7,0v54.7a25.6,25.6,0,0,0-5.3,40.4l32.8,32.9a6.4,6.4,0,1,0,9.1-9.1l-32.8-32.9a12.8,12.8,0,0,1,4.8-21.2h0a12.8,12.8,0,0,1,13.3,3l14.4,14.4c14.9,14.9,47.4,20.5,47.4,20.5A25.2,25.2,0,0,1,275,307.3v81.2H219.8V352.5a6.4,6.4,0,0,0-3.5-5.7l-34.4-17.2a70.2,70.2,0,0,1-39-63.1V179.3Z"></path><path class="1adb2efb-b21a-4d8c-80a4-74478dec1d70" d="M217.3,230.7H371.2a6.4,6.4,0,0,0,6.4-6.4V79.3a6.4,6.4,0,0,0-6.4-6.4H217.3a6.4,6.4,0,0,0-6.4,6.4V224.2A6.4,6.4,0,0,0,217.3,230.7ZM275,85.7h38.5v34.6L296.8,112a6.4,6.4,0,0,0-5.7,0L275,120.2V85.7Zm-51.3,0h38.5v44.9a6.4,6.4,0,0,0,9.3,5.7L294,124.9l23,11.4a6.4,6.4,0,0,0,9.3-5.7V85.7h38.5V217.8H223.7V85.7Z"></path><path class="1adb2efb-b21a-4d8c-80a4-74478dec1d70" d="M345.5,185.8H307.1a6.4,6.4,0,1,0,0,12.8h38.5A6.4,6.4,0,0,0,345.5,185.8Z"></path><circle class="1adb2efb-b21a-4d8c-80a4-74478dec1d70" cx="424.4" cy="325.6" r="6.4"></circle><path class="1adb2efb-b21a-4d8c-80a4-74478dec1d70" d="M432.8,153.7a25.7,25.7,0,0,0-25.7,25.7v51.3a25.5,25.5,0,0,0-18.1,7.5l-14.4,14.4c-7.9,7.9-27.9,15.6-39.2,16.7h-0.4a38,38,0,0,0-34.3,37.9v87.6a6.4,6.4,0,0,0,6.4,6.4h68a6.4,6.4,0,0,0,6.4-6.4V356.5l21-10.5a6.4,6.4,0,0,0-5.7-11.5l-24.5,12.3a6.4,6.4,0,0,0-3.5,5.7v35.9H313.5V307.3a25.2,25.2,0,0,1,22.8-25.1h0.4c13.9-1.4,36.9-10.4,46.9-20.4L398,247.2a12.8,12.8,0,0,1,13.3-3h0a12.8,12.8,0,0,1,4.8,21.2l-32.8,32.9a6.4,6.4,0,1,0,9.1,9.1l32.8-32.9a25.7,25.7,0,0,0-5.3-40.4V179.3a12.8,12.8,0,1,1,25.7,0v87.1a70.7,70.7,0,0,1-8.6,33.7,6.4,6.4,0,0,0,11.3,6.1,83.6,83.6,0,0,0,10.1-39.8V179.3A25.7,25.7,0,0,0,432.8,153.7Z"></path></svg>