<svg xmlns="http://www.w3.org/2000/svg" id="87f83fad-c4f4-42e6-9978-0197ffc91d08" data-name="Layer 1" viewBox="0 0 500 434"><defs><style>.\33 823445d-e089-4b63-b3e9-ac51a0bfc554{fill:#eef;}.d68c1ba0-eba3-47ea-b8f2-6d57ebceb597{fill:#fff;}.\39 87a3c20-c8c8-49c2-aa12-cf73afe66f63{fill:#4531d9;}</style></defs><title>features4</title><path class="3823445d-e089-4b63-b3e9-ac51a0bfc554" d="M175.6,20.6c-17.2,4.3-91.4,22.9-132,93.3C11.9,169-3.9,264,45,301.9c46.6,36.2,126.9.7,167.3-28.7,88.4-64.3,126.2-201.4,81.3-246C264.5-1.7,205.4,13.1,175.6,20.6Z"></path><path class="d68c1ba0-eba3-47ea-b8f2-6d57ebceb597" d="M190.8,325.2l-27.6-8-5.6-44.9,5.6-139.7s9.1-17.3,15.7-18.7l30-6,6.8-8,14.5-3.3L250,80.1s3.6-22.2,18.3-2.8,26,24,26,24a29.9,29.9,0,0,1,9.2-2c4.2,0,9.1,11.3,9.1,11.3V325.2s-33.4,43.1-34.2,42.9S190.8,325.2,190.8,325.2Z"></path><path class="987a3c20-c8c8-49c2-aa12-cf73afe66f63" d="M329,368.1h-6.7a18.8,18.8,0,0,1-18.8-18.8V278.5a18.8,18.8,0,0,1,18.8-18.8H329a18.8,18.8,0,0,1,18.8,18.8v70.8A18.8,18.8,0,0,1,329,368.1Zm-6.7-95.8a6.3,6.3,0,0,0-6.3,6.3v70.8a6.3,6.3,0,0,0,6.3,6.3H329a6.3,6.3,0,0,0,6.3-6.3V278.5a6.3,6.3,0,0,0-6.3-6.3h-6.7Z"></path><path class="987a3c20-c8c8-49c2-aa12-cf73afe66f63" d="M416.5,368.1h-11c-46.5,0-67-15.6-67.9-16.3a6.3,6.3,0,1,1,7.7-9.9c0.1,0.1,18.4,13.6,60.2,13.6h11A17.6,17.6,0,0,0,434,340.8l7-41.9a17.7,17.7,0,0,0-17.4-20.6H387.6a6.3,6.3,0,0,1-5.2-9.7s4.9-7.8,4.9-20.5-5.4-17.7-8.7-17.7a3.9,3.9,0,0,0-1.3.1c0,0.1-1.4,1.9-1.4,11.6,0,24.4-30.1,40.8-31.4,41.5a6.3,6.3,0,0,1-5.9-11c6.9-3.7,24.8-16.4,24.8-30.4,0-8.5,0-24.2,15.3-24.2,10.2,0,21.2,9.5,21.2,30.2a58.5,58.5,0,0,1-2.7,17.7h26.4a30.2,30.2,0,0,1,29.8,35.2l-7,41.9a30.1,30.1,0,0,1-29.8,25.2h0Z"></path><path class="987a3c20-c8c8-49c2-aa12-cf73afe66f63" d="M272.2,330.5H184.5a31.3,31.3,0,0,1-31.3-31.3V136.4a31.3,31.3,0,0,1,31.3-31.3h25a6.3,6.3,0,0,1,0,12.5h-25a18.8,18.8,0,0,0-18.8,18.8V299.2A18.8,18.8,0,0,0,184.5,318h87.7A6.3,6.3,0,1,1,272.2,330.5Z"></path><path class="987a3c20-c8c8-49c2-aa12-cf73afe66f63" d="M297.2,142.7H222.1a18.8,18.8,0,0,1-18.8-18.8v-25a6.3,6.3,0,0,1,6.3-6.3H229a31.3,31.3,0,0,1,61.4,0h19.4a6.3,6.3,0,0,1,6.3,6.3v25A18.8,18.8,0,0,1,297.2,142.7Zm-81.4-37.6v18.8a6.3,6.3,0,0,0,6.3,6.3h75.1a6.3,6.3,0,0,0,6.3-6.3V105.1H284.7a6.3,6.3,0,0,1-6.3-6.3,18.8,18.8,0,1,0-37.6,0,6.3,6.3,0,0,1-6.3,6.3H215.8Z"></path><path class="987a3c20-c8c8-49c2-aa12-cf73afe66f63" d="M322.3,180.3H197a6.3,6.3,0,1,1,0-12.5H322.3A6.3,6.3,0,0,1,322.3,180.3Z"></path><path class="987a3c20-c8c8-49c2-aa12-cf73afe66f63" d="M322.3,217.8H197a6.3,6.3,0,1,1,0-12.5H322.3A6.3,6.3,0,0,1,322.3,217.8Z"></path><path class="987a3c20-c8c8-49c2-aa12-cf73afe66f63" d="M272.2,255.4H197a6.3,6.3,0,1,1,0-12.5h75.1A6.3,6.3,0,1,1,272.2,255.4Z"></path><path class="987a3c20-c8c8-49c2-aa12-cf73afe66f63" d="M359.8,192.8a6.3,6.3,0,0,1-6.3-6.3V136.4a18.8,18.8,0,0,0-18.8-18.8h-25a6.3,6.3,0,0,1,0-12.5h25a31.3,31.3,0,0,1,31.3,31.3v50.1A6.3,6.3,0,0,1,359.8,192.8Z"></path></svg>