<svg xmlns="http://www.w3.org/2000/svg" id="e1bbe8b7-05c6-421f-aeeb-0fc14946a31c" data-name="Layer 1" viewBox="0 0 500 434"><defs><style>.ccca4c8b-92da-42f7-8030-e88633fb5d5f{fill:#eef;}.\31 643847c-a39e-4aaf-98c3-19bbfecb145f{fill:#fff;}.b9f583ce-cb3f-4cbe-b8cc-a9db0ab139d8{fill:#4531d9;}</style></defs><title>features</title><path class="ccca4c8b-92da-42f7-8030-e88633fb5d5f" d="M175.6,20.6c-17.2,4.3-91.4,22.9-132,93.3C11.9,169-3.9,264,45,301.9c46.6,36.2,126.9.7,167.3-28.7,88.4-64.3,126.2-201.4,81.3-246C264.5-1.7,205.4,13.1,175.6,20.6Z"></path><rect class="1643847c-a39e-4aaf-98c3-19bbfecb145f" x="141.2" y="100.6" width="262" height="247.01"></rect><path class="b9f583ce-cb3f-4cbe-b8cc-a9db0ab139d8" d="M175.9,125.9A6.9,6.9,0,1,1,169,119,6.9,6.9,0,0,1,175.9,125.9Zm30.9,0A6.9,6.9,0,1,1,200,119,6.9,6.9,0,0,1,206.8,125.9Zm30.9,0a6.9,6.9,0,1,1-6.9-6.9A6.9,6.9,0,0,1,237.8,125.9Zm44.7,210.4a6.9,6.9,0,1,0,6.9,6.9A6.9,6.9,0,0,0,282.5,336.3ZM272.2,180.9V282a6.9,6.9,0,0,1-6.9,6.9H169a6.9,6.9,0,0,1-6.9-6.9V180.9A6.9,6.9,0,0,1,169,174h96.3A6.9,6.9,0,0,1,272.2,180.9Zm-13.8,6.9H175.9v87.3h82.5V187.8Zm34.4,4.8h70.8a6.9,6.9,0,0,0,0-13.8H292.8A6.9,6.9,0,1,0,292.8,192.6Zm0,27.5h57.1a6.9,6.9,0,1,0,0-13.8H292.8A6.9,6.9,0,1,0,292.8,220.1ZM169,302.6a6.9,6.9,0,0,0,0,13.8h48.1a6.9,6.9,0,0,0,0-13.8H169Zm277.7-13.1a43.9,43.9,0,0,0,0,28.9,6.9,6.9,0,0,0,9.6,3.9l7.8-3.6c9.2-4.3,19.8,1.8,19.8,12.3v29.3a13.8,13.8,0,0,1-13.8,13.8H431.3l3.8,8.2a20.5,20.5,0,0,1-11.9,28.2,57.6,57.6,0,0,1-38.1,0,20.6,20.6,0,0,1-11.9-28.2l3.8-8.2H338.2a13.8,13.8,0,0,1-13.8-13.8V350.1h-11a6.9,6.9,0,0,1,0-13.8h11v-5.2c0-10.5,10.6-16.6,19.8-12.3l7.8,3.6a6.9,6.9,0,0,0,9.6-3.9,43.9,43.9,0,0,0,0-28.9,7,7,0,0,0-9.4-4l-8.3,3.9a13.7,13.7,0,0,1-19.6-12.8v-29a13.8,13.8,0,0,1,13.8-13.8H377l-3.8-8.2c-6-14.3,3.2-25.1,11.9-28.2a57,57,0,0,1,31.4-1.9V160.3H148.4v176H251.3a7,7,0,0,1,7.1,6.4,6.9,6.9,0,0,1-6.9,7.4h-110a6.9,6.9,0,0,1-6.9-6.9v-231a20.6,20.6,0,0,1,20.6-20.6H409.7a20.6,20.6,0,0,1,20.6,20.6v89.6c5.6,5.1,9.2,13.6,4.8,23.9l-3.8,8.2h38.9a13.8,13.8,0,0,1,13.8,13.8v29a13.7,13.7,0,0,1-19.6,12.8l-8.3-3.9a7,7,0,0,0-9.4,4h0Zm-30.1-143V112.1a6.9,6.9,0,0,0-6.9-6.9H155.3a6.9,6.9,0,0,0-6.9,6.9v34.4H416.6Zm17.2,138.4A20.7,20.7,0,0,1,461.9,273l8.3,3.9V247.6H431.3c-10.7,0-16.5-11.2-12.5-19.6l3.8-8.2a6.9,6.9,0,0,0-4-9.4,44.3,44.3,0,0,0-29,0,6.9,6.9,0,0,0-4,9.4l3.8,8.2c4,8.4-1.7,19.6-12.5,19.6H338.2v29.3l8.3-3.9a20.7,20.7,0,0,1,28.2,11.9,57,57,0,0,1,0,38.1c-3.5,9.8-15.2,17.6-28.2,11.9l-8.3-3.9v29.3H377A13.8,13.8,0,0,1,389.5,380l-3.8,8.2a6.8,6.8,0,0,0,4,9.4c10,3,18,3.4,29,0a6.9,6.9,0,0,0,4-9.4l-3.8-8.2a13.7,13.7,0,0,1,12.5-19.6h38.9V331.1l-8.3,3.9c-13,5.7-24.7-2.1-28.2-11.9A57,57,0,0,1,433.7,284.9Z"></path></svg>