<svg xmlns="http://www.w3.org/2000/svg" xmlns:xlink="http://www.w3.org/1999/xlink" width="266" height="266" viewBox="0 0 266 266"><defs><style>.a,.f{fill:none;}.b{fill:url(#a);}.c{fill:#cfcfcf;}.d{fill:url(#b);}.e{clip-path:url(#d);}.f{stroke:#761f93;stroke-miterlimit:10;stroke-width:4px;}</style><radialGradient id="a" cx="0.5" cy="0.5" r="0.5" gradientUnits="objectBoundingBox"><stop offset="0" stop-color="#fff"></stop><stop offset="1" stop-color="#e2e2e2"></stop></radialGradient><linearGradient id="b" x1="0.5" x2="0.5" y2="1" gradientUnits="objectBoundingBox"><stop offset="0" stop-color="#242460"></stop><stop offset="1" stop-color="#550087"></stop></linearGradient><clipPath id="d"><rect class="a" width="139" height="139" transform="translate(496 4230.5)"></rect></clipPath></defs><g transform="translate(-432.5 -4167)"><circle class="b" cx="133" cy="133" r="133" transform="translate(432.5 4167)"></circle><path class="c" d="M548.729,4290.965l-22.144-4.335-.624,3.572-8.921-1.56a10.864,10.864,0,0,0-12.584,8.839l-5.949,33.936A10.878,10.878,0,0,0,507.349,4344l8.92,1.564-.94,5.356a3.627,3.627,0,1,0-1.251,7.143l50,8.745a3.627,3.627,0,0,0,1.25-7.146l2.035-11.525s-18.337-53.445-18.458-54.161Zm-31.2,47.452-7.143-1.249a5.437,5.437,0,0,1-4.42-6.292l5.309-30.361a5.435,5.435,0,0,1,6.294-4.418l7.141,1.248Zm0,0"></path><path class="c" d="M549.669,4294.981l21.023,61.785a3.627,3.627,0,1,0,2.347,6.865l48.054-16.349a3.625,3.625,0,1,0-2.336-6.864l-2.105-6.184,7.225-2.459a10.875,10.875,0,0,0,6.793-13.8l-11.1-32.612a10.873,10.873,0,0,0-13.8-6.795l-7.223,2.457-.815-2.394Zm70.142,30.514-5.507,1.878-13.426-39.481,5.505-1.878a5.442,5.442,0,0,1,6.9,3.4l9.927,29.175a5.44,5.44,0,0,1-3.4,6.907Zm0,0"></path><path class="d" d="M577.394,4306.12l4.441-1.512,15.182,44.623-4.443,1.512Zm0,0"></path><path class="d" d="M565.378,4310.206l4.443-1.512L585,4353.316l-4.443,1.513Zm0,0"></path><g class="e"><path class="d" d="M589.411,4302.031l4.442-1.512,15.179,44.624-4.441,1.51Zm0,0"></path><path d="M506.945,4346.309l6.616,1.158-.21,1.208a5.971,5.971,0,0,0,.338,11.7l50,8.744a5.852,5.852,0,0,0,1.027.091,5.98,5.98,0,0,0,5.414-3.5,5.717,5.717,0,0,0,3.147-.175l48.055-16.348a5.973,5.973,0,0,0-1.471-11.611l-.4-1.158,6.359-2.163a13.242,13.242,0,0,0,8.259-16.781l-11.09-32.611a13.222,13.222,0,0,0-16.777-8.259l-6.361,2.163-.413-1.21a16.843,16.843,0,0,0-29.34-4.805,13.029,13.029,0,0,0-10.814,4.46,11.477,11.477,0,0,0-1.547-.39,13.3,13.3,0,0,0-5.231.14,16.847,16.847,0,0,0-28.244,9.271l-.221,1.261-6.618-1.158a13.221,13.221,0,0,0-15.305,10.748l-5.924,33.926a13.24,13.24,0,0,0,10.75,15.3Zm39.378-53.751a13.007,13.007,0,0,0,.548,2.611l-18.818-3.287.438-2.511Zm5.821,3.578,2.419-.821.826,2.42-2.425.823ZM515.62,4335.7l-4.835-.845a3.089,3.089,0,0,1-2.509-3.578l5.31-30.359a3.1,3.1,0,0,1,3.577-2.511l4.831.845Zm48.874,28.793-50-8.747a1.279,1.279,0,1,1,.442-2.517,2.348,2.348,0,0,0,2.716-1.908l9.59-54.834,21.336,3.732,16.359,48.1-1.914,10.936a2.349,2.349,0,0,0,1.911,2.716,1.279,1.279,0,1,1-.444,2.52Zm56.122-21.378a1.276,1.276,0,0,1-.8,1.622l-48.055,16.35a1.28,1.28,0,1,1-.828-2.422,2.348,2.348,0,0,0,1.467-2.979l-17.926-52.7,2.8-.949a7.759,7.759,0,0,0,12,.635,7.789,7.789,0,0,0,13.072-7.816l-.415-1.209,16.155-5.5,17.927,52.7a2.348,2.348,0,0,0,2.981,1.467,1.277,1.277,0,0,1,1.617.8ZM579.6,4286.782l16.158-5.494.823,2.421-16.15,5.5Zm24.1,3.286,4.643-1.58a3.091,3.091,0,0,1,3.923,1.936L622.2,4319.6a3.093,3.093,0,0,1-1.933,3.921l-4.643,1.582Zm4.03-9.022a8.531,8.531,0,0,1,10.825,5.328l11.084,32.6a8.542,8.542,0,0,1-5.328,10.822l-6.36,2.164-.832-2.423,4.645-1.58a7.8,7.8,0,0,0,4.861-9.88L616.7,4288.9a7.8,7.8,0,0,0-9.878-4.864l-4.644,1.58-.819-2.42Zm-45.836.468a8.493,8.493,0,0,1,8.885-3.947,2.351,2.351,0,0,0,2.433-1.058,12.014,12.014,0,0,1,6.351-5.036,12.164,12.164,0,0,1,14.442,5.445l-18.149,6.176a2.349,2.349,0,0,0-1.457,2.98l3.5,10.3a3.091,3.091,0,0,1-5.85,1.99l-1.173-3.432a2.347,2.347,0,1,0-4.44,1.515,3.092,3.092,0,0,1-5.855,1.985l-2.347-6.865a2.349,2.349,0,0,0-2.977-1.466l-4.292,1.46a8.515,8.515,0,0,1,5.731-8.481,8.418,8.418,0,0,1,3.077-.438,2.326,2.326,0,0,0,2.112-1.126Zm-18.927-4.358a12.017,12.017,0,0,1,7.068,3.99,2.292,2.292,0,0,0,.414.352,13.308,13.308,0,0,0-3.774,6.338l-17.134-3.068a12.166,12.166,0,0,1,13.419-7.615Zm-42.15,54.658,5.935-33.929a8.526,8.526,0,0,1,9.872-6.933l6.614,1.157-.438,2.521-4.831-.847a7.785,7.785,0,0,0-9.012,6.338l-5.31,30.358a7.789,7.789,0,0,0,6.337,9.009l4.831.846-.439,2.521-6.638-1.169a8.542,8.542,0,0,1-6.921-9.872Zm0,0"></path></g><path class="d" d="M537.715,4356.673l8.124-46.43,4.626.809-8.122,46.431Zm0,0"></path><path class="d" d="M550.217,4358.878l4.551-27.611,4.629.763-4.552,27.612Zm0,0"></path><path class="d" d="M525.217,4354.484l8.118-46.428,4.627.808-8.12,46.429Zm0,0"></path><circle class="f" cx="10.5" cy="10.5" r="10.5" transform="translate(558 4245)"></circle><circle class="f" cx="5.33" cy="5.33" r="5.33" transform="translate(582.17 4232.17)"></circle><circle class="f" cx="8.137" cy="8.137" r="8.137" transform="translate(526.363 4248.363)"></circle><circle class="f" cx="5.628" cy="5.628" r="5.628" transform="translate(521.872 4227.872)"></circle></g></svg>