<svg xmlns="http://www.w3.org/2000/svg" xmlns:xlink="http://www.w3.org/1999/xlink" width="266" height="266" viewBox="0 0 266 266"><defs><style>.a{fill:url(#a);}.b{fill:#fff69a;}.c{fill:#fdbd40;}.d{fill:url(#b);}.e{fill:#741e92;}.f{fill:#761f93;}</style><radialGradient id="a" cx="0.5" cy="0.5" r="0.5" gradientUnits="objectBoundingBox"><stop offset="0" stop-color="#fff"></stop><stop offset="1" stop-color="#e2e2e2"></stop></radialGradient><linearGradient id="b" x1="0.5" x2="0.5" y2="1" gradientUnits="objectBoundingBox"><stop offset="0" stop-color="#242460"></stop><stop offset="1" stop-color="#550087"></stop></linearGradient></defs><g transform="translate(-828.5 -4167)"><circle class="a" cx="133" cy="133" r="133" transform="translate(828.5 4167)"></circle><path class="b" d="M912.85,4327.8a2.317,2.317,0,0,1-2.317-2.317V4293.05a2.318,2.318,0,0,1,2.317-2.317h9.267a2.317,2.317,0,0,1,0,4.634h-6.95v30.116A2.317,2.317,0,0,1,912.85,4327.8Z"></path><path class="c" d="M1014.783,4355.6H894.317a2.317,2.317,0,1,1,0-4.633h120.466a2.317,2.317,0,1,1,0,4.633Z"></path><path class="d" d="M922.117,4290.733H912.85a2.318,2.318,0,0,0-2.317,2.317v32.433a2.317,2.317,0,0,0,4.634,0v-30.116h6.95a2.317,2.317,0,0,0,0-4.634Z"></path><path class="d" d="M1021.733,4290.733h-13.9v-2.316a6.949,6.949,0,0,0-6.95-6.95H908.217a6.949,6.949,0,0,0-6.95,6.95v41.7a6.95,6.95,0,0,0,6.95,6.95h.136a20.84,20.84,0,0,0,7.645,13.9H894.317a2.317,2.317,0,1,0,0,4.633h10.638l8.822,8.609a2.317,2.317,0,0,0,1.621.658h78.3a2.316,2.316,0,0,0,1.621-.658l8.822-8.609h10.638a2.317,2.317,0,1,0,0-4.633H993.109a20.841,20.841,0,0,0,7.645-13.9h.129a6.95,6.95,0,0,0,6.95-6.95V4327.8h13.9a9.267,9.267,0,0,0,9.267-9.267V4300a9.267,9.267,0,0,0-9.267-9.267ZM997.51,4355.6l-4.735,4.633H916.337l-4.747-4.633Zm-17.477-4.633H929.067a16.243,16.243,0,0,1-16.053-13.9h83.072A16.243,16.243,0,0,1,980.033,4350.967Zm23.167-20.85a2.316,2.316,0,0,1-2.317,2.316H908.217a2.316,2.316,0,0,1-2.317-2.316v-41.7a2.317,2.317,0,0,1,2.317-2.317H975.4v15.67l-11.352,22.678a2.316,2.316,0,0,0,2.085,3.352H989.3a2.317,2.317,0,0,0,2.085-3.352l-11.352-22.678V4286.1h20.85a2.317,2.317,0,0,1,2.317,2.317Zm-25.483-22.62,7.835,15.67h-15.67Zm30.116-2.864h9.267v9.267h-9.267Zm18.534,13.9a4.634,4.634,0,0,1-4.634,4.634h-13.9v-4.634h11.584a2.316,2.316,0,0,0,2.316-2.316v-13.9a2.316,2.316,0,0,0-2.316-2.317h-11.584v-4.633h13.9a4.633,4.633,0,0,1,4.634,4.633Z"></path><path class="e" d="M956.867,4235.133H924.433a11.583,11.583,0,0,0,0,23.167h9.5a11.2,11.2,0,0,0-.232,2.317,11.6,11.6,0,0,0,11.583,11.583h32.434a11.583,11.583,0,0,0,0-23.167h-9.5a11.2,11.2,0,0,0,.232-2.316A11.6,11.6,0,0,0,956.867,4235.133Zm20.85,18.534a6.95,6.95,0,1,1,0,13.9H945.283a6.95,6.95,0,0,1-6.95-6.95,6.826,6.826,0,0,1,.971-3.475,2.316,2.316,0,0,0-2-3.475H924.433a6.95,6.95,0,1,1,0-13.9h32.434a6.95,6.95,0,0,1,6.95,6.95,6.833,6.833,0,0,1-.971,3.475,2.317,2.317,0,0,0,2,3.475Z"></path><circle class="f" cx="2.5" cy="2.5" r="2.5" transform="translate(919 4302)"></circle><circle class="f" cx="1.585" cy="1.585" r="1.585" transform="translate(969.915 4289.915)"></circle><circle class="f" cx="2.483" cy="2.483" r="2.483" transform="translate(964.017 4296.017)"></circle></g></svg>