<svg xmlns="http://www.w3.org/2000/svg" xmlns:xlink="http://www.w3.org/1999/xlink" width="266" height="266" viewBox="0 0 266 266"><defs><style>.a{fill:none;}.b{fill:url(#a);}.c{clip-path:url(#b);}.d{fill:#abbac2;}.e{fill:#741e92;}.f{fill:url(#c);}.g{fill:url(#d);}</style><radialGradient id="a" cx="0.5" cy="0.5" r="0.5" gradientUnits="objectBoundingBox"><stop offset="0" stop-color="#fff"></stop><stop offset="1" stop-color="#e2e2e2"></stop></radialGradient><clipPath id="b"><rect class="a" width="118.836" height="136.79" transform="translate(1299.082 4231.605)"></rect></clipPath><linearGradient id="c" y1="0.5" x2="1" y2="0.5" gradientUnits="objectBoundingBox"><stop offset="0" stop-color="#242460"></stop><stop offset="1" stop-color="#550087"></stop></linearGradient><linearGradient id="d" x1="0" y1="0.5" x2="1" y2="0.5" xlink:href="#c"></linearGradient></defs><g transform="translate(-1225.5 -4167)"><circle class="b" cx="133" cy="133" r="133" transform="translate(1225.5 4167)"></circle><g class="c"><path class="d" d="M1408.248,4329.64a41.853,41.853,0,0,0,.267-4.56H1308.209a41.852,41.852,0,0,0,.266,4.56Zm0,0"></path><path d="M1410.678,4327.36h4.677a2.279,2.279,0,0,0,2.279-2.28V4311.4a2.279,2.279,0,0,0-2.279-2.28h-6.827a29.635,29.635,0,0,0-3.228-28.561l5.8-7.066a8.643,8.643,0,1,0-14.057-9.968l-4.242,6.985a29.254,29.254,0,0,0-10.195-2.341,29.63,29.63,0,1,0-57.15,1.7,29.617,29.617,0,0,0-5.323,2.545l-1.238-2.053a8.651,8.651,0,1,0-14.084,9.968l3.958,4.818a29.378,29.378,0,0,0-2.836,12.57,29.717,29.717,0,0,0,2.266,11.4h-6.826a2.28,2.28,0,0,0-2.28,2.28v13.677a2.28,2.28,0,0,0,2.28,2.28h4.676a43.33,43.33,0,0,0,43.2,41.035h18.238a43.33,43.33,0,0,0,43.2-41.035Zm-9.741-61.467a4.082,4.082,0,1,1,6.638,4.714l-12.392,15.092a20.77,20.77,0,0,0-4.355-3.164Zm-14.39,14.909a21.961,21.961,0,0,0-4.015-.727l-.4,4.541a16.93,16.93,0,0,1,13.98,9.934l4.1-1.986a23.924,23.924,0,0,0-2-3.374l4.072-4.957a24.7,24.7,0,0,1,3.947,13.491,25.072,25.072,0,0,1-2.778,11.4h-40.522a29.736,29.736,0,0,0,2.267-11.4,29.411,29.411,0,0,0-4.1-14.966,24.928,24.928,0,0,1,29.317-8.323Zm-57.821-19.554a25.077,25.077,0,0,1,50.153,0,24.655,24.655,0,0,1-1.028,7.046,29.441,29.441,0,0,0-19.489,10.526,29.461,29.461,0,0,0-28.519-10.16,25.161,25.161,0,0,1-1.117-7.412Zm-21.339,13.611a4.079,4.079,0,0,1,1.727-3.335,4.126,4.126,0,0,1,3.223-.684,4.022,4.022,0,0,1,2.652,1.885l10.162,16.768a21.926,21.926,0,0,0-4.3,3.191l-12.538-15.253a4.062,4.062,0,0,1-.931-2.572Zm3.1,22.865a25,25,0,0,1,1.528-8.606l5.8,7.068a28.341,28.341,0,0,0-1.74,2.712l3.981,2.225a18.043,18.043,0,0,1,13.48-9.622l-.511-4.534a20.864,20.864,0,0,0-3.646.743l-6.9-11.4a25.044,25.044,0,0,1,35.383,32.811h-44.6a25.058,25.058,0,0,1-2.777-11.4Zm-6.84,15.958h109.426v9.119H1303.649Zm63.832,50.153h-18.238a38.77,38.77,0,0,1-38.638-36.475h95.518a38.769,38.769,0,0,1-38.642,36.475Zm0,0"></path></g><rect class="e" width="4.56" height="4.56" transform="translate(1337.845 4300.003)"></rect><rect class="e" width="4.56" height="4.56" transform="translate(1376.6 4297.724)"></rect><rect class="e" width="4.56" height="4.56" transform="translate(1392.557 4300.003)"></rect><rect class="e" width="4.56" height="4.559" transform="translate(1335.565 4277.208)"></rect><rect class="e" width="4.559" height="4.56" transform="translate(1346.964 4288.605)"></rect><rect class="e" width="4.56" height="4.56" transform="translate(1369.76 4286.326)"></rect><rect class="e" width="4.56" height="4.56" transform="translate(1349.243 4243.011)"></rect><rect class="e" width="4.56" height="4.559" transform="translate(1335.565 4256.689)"></rect><rect class="e" width="4.559" height="4.56" transform="translate(1367.481 4252.13)"></rect><rect class="e" width="4.56" height="4.56" transform="translate(1358.362 4265.808)"></rect><rect class="e" width="4.56" height="4.56" transform="translate(1351.523 4254.41)"></rect><path class="f" d="M1392.557,4261.248a38.968,38.968,0,0,0-.3-4.841l-4.523.566a34.523,34.523,0,0,1,.265,4.275Zm0,0"></path><path class="g" d="M1377.311,4236.414a34.125,34.125,0,0,1,9.608,16.284l4.418-1.14a38.662,38.662,0,0,0-10.891-18.465Zm0,0"></path></g></svg>