<svg xmlns="http://www.w3.org/2000/svg" xmlns:xlink="http://www.w3.org/1999/xlink" width="266" height="266" viewBox="0 0 266 266"><defs><style>.a{fill:url(#a);}.b{fill:url(#b);}.c{fill:url(#c);}.d{fill:url(#d);}.e{fill:url(#e);}.f{fill:url(#f);}.g{fill:#cfd8dc;}.h{fill:url(#g);}.i{fill:url(#h);}.j{fill:#761f93;}</style><radialGradient id="a" cx="0.5" cy="0.5" r="0.5" gradientUnits="objectBoundingBox"><stop offset="0" stop-color="#fff"></stop><stop offset="1" stop-color="#e2e2e2"></stop></radialGradient><linearGradient id="b" x1="0.359" y1="-1.116" x2="0.65" y2="1.915" gradientUnits="objectBoundingBox"><stop offset="0" stop-color="#381952"></stop><stop offset="0.553" stop-color="#270841"></stop><stop offset="1" stop-color="#451c68"></stop></linearGradient><linearGradient id="c" x1="0.273" y1="0.089" x2="0.673" y2="1.244" xlink:href="#b"></linearGradient><linearGradient id="d" x1="0.273" y1="0.089" x2="0.673" y2="1.244" xlink:href="#b"></linearGradient><linearGradient id="e" x1="0.273" y1="0.089" x2="0.673" y2="1.244" xlink:href="#b"></linearGradient><linearGradient id="f" x1="0.273" y1="0.09" x2="0.673" y2="1.244" xlink:href="#b"></linearGradient><linearGradient id="g" x1="0.209" y1="0.093" x2="0.674" y2="0.902" xlink:href="#b"></linearGradient><linearGradient id="h" x1="0.356" y1="0.179" x2="0.746" y2="0.855" xlink:href="#b"></linearGradient></defs><g transform="translate(-828.5 -3764)"><circle class="a" cx="133" cy="133" r="133" transform="translate(828.5 3764)"></circle><path class="b" d="M1017.85,3956.978H905.15a17.171,17.171,0,0,1-17.15-17.15,7.381,7.381,0,0,1,7.35-7.35h132.3a7.359,7.359,0,0,1,7.35,7.35A17.171,17.171,0,0,1,1017.85,3956.978Zm-122.5-19.6a2.359,2.359,0,0,0-1.7.7,2.391,2.391,0,0,0-.75,1.746,12.263,12.263,0,0,0,12.25,12.25h112.7a12.272,12.272,0,0,0,12.25-12.25,2.455,2.455,0,0,0-2.45-2.45Z"></path><path class="c" d="M1022.75,3937.378h-19.6a2.449,2.449,0,0,1-2.45-2.447v0a12.249,12.249,0,0,1,22.415-6.833l.412.662a12.136,12.136,0,0,1,1.671,6.174,2.445,2.445,0,0,1-2.448,2.447Zm-16.731-4.9h13.867a6.836,6.836,0,0,0-.549-1.185l-.333-.532a7.35,7.35,0,0,0-12.985,1.717Z"></path><path class="d" d="M988.45,3937.378h-19.6a2.449,2.449,0,0,1-2.45-2.447v0a12.25,12.25,0,0,1,24.5,0,2.449,2.449,0,0,1-2.45,2.45Zm-16.731-4.9h13.86a7.351,7.351,0,0,0-13.86,0Z"></path><path class="e" d="M954.15,3937.378h-19.6a2.449,2.449,0,0,1-2.45-2.447v0a12.236,12.236,0,0,1,10.136-12.068,11.991,11.991,0,0,1,2.114-.182,12.264,12.264,0,0,1,12.25,12.25,2.449,2.449,0,0,1-2.45,2.45Zm-16.733-4.9h13.862a7.363,7.363,0,0,0-6.931-4.9,7.207,7.207,0,0,0-1.252.106A7.361,7.361,0,0,0,937.417,3932.478Z"></path><path class="f" d="M919.85,3937.378h-19.6a2.449,2.449,0,0,1-2.45-2.447v0a12.25,12.25,0,0,1,24.5,0,2.449,2.449,0,0,1-2.45,2.45Zm-16.726-4.9h13.855a7.364,7.364,0,0,0-13.855,0Z"></path><path d="M1003.15,3937.378h-14.7a2.449,2.449,0,0,1-2.45-2.447v0a7.35,7.35,0,1,0-14.7,0,2.448,2.448,0,0,1-2.448,2.45h-14.7a2.449,2.449,0,0,1-2.45-2.447v0a7.36,7.36,0,0,0-7.35-7.35,7.207,7.207,0,0,0-1.252.106,7.346,7.346,0,0,0-6.1,7.244,2.448,2.448,0,0,1-2.447,2.45h-14.7a2.449,2.449,0,0,1-2.45-2.447v0a7.34,7.34,0,0,0-13.519-3.971,2.454,2.454,0,0,1-2.031,1.129,2.487,2.487,0,0,1-2.061-1.073,25.709,25.709,0,0,1-4.439-14.46,25.964,25.964,0,0,0,0-22.05,25.725,25.725,0,0,1,46.709-14.881c2.156-1.587,5.65-4.75,8.823-7.622,3.594-3.253,7.668-6.943,11.539-10.035,8.426-6.73,21.744-7.208,33.923-1.215a2.452,2.452,0,0,1,1.115,3.283,2.4,2.4,0,0,1-.466.649,39.353,39.353,0,0,1-16.226,9.754,2.326,2.326,0,0,1-.723.1c-.083,0-.174,0-.26-.012a19.589,19.589,0,1,0,11.959,33.388.505.505,0,0,0,.046-.046,19.494,19.494,0,0,0,5.616-15.719,2.224,2.224,0,0,1-.012-.258,2.445,2.445,0,0,1,.1-.73,39.112,39.112,0,0,1,10.82-17.233l.764-.664a2.451,2.451,0,0,1,3.462.179.134.134,0,0,1,.019.022,73.2,73.2,0,0,1,4.844,6.159c16.141,23.06,15.526,33.729,15.146,35.956a20.764,20.764,0,0,1-8.44,16.494,2.456,2.456,0,0,1-1.313.411l-1.3.025a2.479,2.479,0,0,1-2.124-1.154l-.368-.588a7.351,7.351,0,0,0-13.406,4.162,2.449,2.449,0,0,1-2.45,2.45Zm-12.5-4.9h10.292a12.248,12.248,0,0,1,21.469-5.321,15.885,15.885,0,0,0,5.234-11.829,2.533,2.533,0,0,1,.058-.541c.049-.282,1.48-9.785-14.317-32.355-.931-1.32-1.9-2.6-2.887-3.817a34.787,34.787,0,0,0-8.185,13.514,24.468,24.468,0,0,1-22.476,26.313c-.454.037-.907.059-1.36.069a24.494,24.494,0,1,1,1.313-48.907,33.833,33.833,0,0,0,10.991-5.941c-11.231-4.285-20.509-1.705-25.314,2.126-3.753,3-7.766,6.633-11.309,9.84-6.171,5.588-9.778,8.79-12.1,9.6a2.442,2.442,0,0,1-2.928-1.09,20.841,20.841,0,0,0-36.429,20.244,2.451,2.451,0,0,1,0,2.294,20.976,20.976,0,0,0-.456,18.806,12.251,12.251,0,0,1,19.8,7h10.3a12.236,12.236,0,0,1,9.891-9.618,11.991,11.991,0,0,1,2.114-.182,12.271,12.271,0,0,1,12,9.8h10.292a12.252,12.252,0,0,1,24.008,0Zm32.1-2.45"></path><path class="g" d="M1030.762,3858.488a6.122,6.122,0,0,1-8.659.015l-.014-.015a7.421,7.421,0,0,1-.784-.955l-7.938,7.962a9.674,9.674,0,0,0-6.934-6.933l7.963-7.938a7.446,7.446,0,0,1-.956-.784,9.681,9.681,0,1,1,17.322,8.648Z"></path><path class="h" d="M1013.367,3867.945a2.448,2.448,0,0,1-2.372-1.839,7.218,7.218,0,0,0-5.172-5.17,2.449,2.449,0,0,1-1.12-4.106l6.2-6.182a8.564,8.564,0,0,1,.806-11.208,8.794,8.794,0,0,1,12.113,0,8.563,8.563,0,0,1,2.516,6.157,8.951,8.951,0,0,1,6.155,2.513,8.585,8.585,0,0,1,0,12.113,8.768,8.768,0,0,1-11.212.806l-6.181,6.2A2.458,2.458,0,0,1,1013.367,3867.945Zm-2.7-10.145a12.172,12.172,0,0,1,3.462,3.459l5.439-5.456a2.524,2.524,0,0,1,1.935-.713,2.455,2.455,0,0,1,1.794,1.02,5.169,5.169,0,0,0,.522.646,3.757,3.757,0,0,0,5.206,0h0a3.677,3.677,0,0,0-5.081-5.314,2.45,2.45,0,0,1-3.457-3.462,3.688,3.688,0,0,0-.13-5.078,3.773,3.773,0,0,0-5.184,0,3.667,3.667,0,0,0-.022,5.186l.02.02a4.952,4.952,0,0,0,.646.522,2.447,2.447,0,0,1,.571,3.417,2.239,2.239,0,0,1-.264.312Z"></path><path class="i" d="M977.949,3918.518a24.493,24.493,0,1,1-.122-48.985c.659,0,1.315.025,1.972.074a34.467,34.467,0,0,0,13.73-8.392c.313-.313.576-.595.806-.842a2.734,2.734,0,0,1,.267-.3c.054-.054.122-.12.179-.182a4.005,4.005,0,0,1,.456-.526,12.283,12.283,0,0,1,11.833-3.166,12.255,12.255,0,0,1,5.51,20.485l-.064.063-.911.809a34.7,34.7,0,0,0-9.283,14.575,24.469,24.469,0,0,1-22.476,26.313c-.454.037-.907.059-1.36.069C978.307,3918.516,978.128,3918.518,977.949,3918.518Zm-.083-44.087a19.591,19.591,0,1,0,13.877,33.481.505.505,0,0,0,.046-.046,19.494,19.494,0,0,0,5.616-15.719,2.224,2.224,0,0,1-.012-.258,2.445,2.445,0,0,1,.1-.73,39.112,39.112,0,0,1,10.82-17.233l.764-.664,1.764,1.693-1.732-1.732a7.353,7.353,0,0,0,1.889-7.088,7.219,7.219,0,0,0-5.179-5.2,7.349,7.349,0,0,0-7.093,1.865c-.027.039-.057.078-.088.118-.113.139-.265.3-.466.507-.042.051-.083.1-.127.154-.289.314-.63.679-1.049,1.1a39.34,39.34,0,0,1-16.229,9.756,2.327,2.327,0,0,1-.722.1,2.261,2.261,0,0,1-.26-.012A18.811,18.811,0,0,0,977.866,3874.431Zm20.97-11.8Z"></path><circle class="j" cx="1.5" cy="1.5" r="1.5" transform="translate(967 3888)"></circle><circle class="j" cx="2.5" cy="2.5" r="2.5" transform="translate(977 3887)"></circle><circle class="j" cx="1.5" cy="1.5" r="1.5" transform="translate(980 3898)"></circle><circle class="j" cx="2.5" cy="2.5" r="2.5" transform="translate(969 3898)"></circle><circle class="j" cx="1.283" cy="1.283" r="1.283" transform="translate(987.217 3890.217)"></circle></g></svg>