<svg xmlns="http://www.w3.org/2000/svg" xmlns:xlink="http://www.w3.org/1999/xlink" width="266" height="266" viewBox="0 0 266 266"><defs><style>.a,.e{fill:none;}.b{fill:url(#a);}.c{clip-path:url(#b);}.d{fill:#761f93;}.e{stroke:#761f93;stroke-miterlimit:10;stroke-width:4px;}</style><radialGradient id="a" cx="0.5" cy="0.5" r="0.5" gradientUnits="objectBoundingBox"><stop offset="0" stop-color="#fff"></stop><stop offset="1" stop-color="#e2e2e2"></stop></radialGradient><clipPath id="b"><rect class="a" width="138.337" height="146.744" transform="translate(496.332 3823.628)"></rect></clipPath></defs><g transform="translate(-432.5 -3764)"><circle class="b" cx="133" cy="133" r="133" transform="translate(432.5 3764)"></circle><g class="c"><path d="M629.926,3896.2c-.03-.015-.061-.03-.093-.043a53.946,53.946,0,0,0,1.657-13.261c0-15.877-6.9-30.787-19.415-41.989-12.451-11.141-28.992-17.276-46.573-17.276a70.078,70.078,0,0,0-41.229,12.981,2.15,2.15,0,1,0,2.51,3.49,66.711,66.711,0,0,1,38.719-12.172c34.015,0,61.689,24.657,61.689,54.966a49.835,49.835,0,0,1-.509,7.091c-.222,1.544-.527,3.086-.9,4.608a98.206,98.206,0,0,0-12.905-3.2c-.847-.159-1.727-.314-2.612-.463a2.149,2.149,0,0,0-.715,4.239c.861.145,1.715.3,2.539.451a82.342,82.342,0,0,1,14.4,3.787h0c.594.23,1.142.462,1.623.684a3.585,3.585,0,0,1-1.52,6.832,3.536,3.536,0,0,1-1.515-.34c-1.09-.509-5.365-2.3-14.611-4-12-2.2-27.137-3.321-44.978-3.321-23.817,0-38.923,2.065-47.4,3.8-7.582,1.547-11.23,3.081-12.172,3.515a3.583,3.583,0,0,1-3.033-6.493c.5-.228,1.031-.451,1.627-.679l0,0a82.22,82.22,0,0,1,14.4-3.788c.831-.155,1.686-.306,2.539-.45a2.149,2.149,0,1,0-.715-4.239c-.877.148-1.756.3-2.612.463a97.843,97.843,0,0,0-12.913,3.2c-.158-.655-.306-1.312-.437-1.968a49.51,49.51,0,0,1-.965-9.727c0-13.981,5.9-27.3,16.609-37.515a2.15,2.15,0,0,0-2.968-3.112c-11.569,11.031-17.94,25.458-17.94,40.626a53.732,53.732,0,0,0,1.048,10.575c.179.891.382,1.785.609,2.675l-.085.038a7.879,7.879,0,0,0,1.866,14.889,405.328,405.328,0,0,0,14.157,47.9,17.257,17.257,0,0,0,16.209,11.4H597.69a17.266,17.266,0,0,0,16.208-11.4c1.12-3.128,2.144-6.072,3.129-9a2.15,2.15,0,1,0-4.075-1.37c-.977,2.9-1.99,5.822-3.1,8.922a12.956,12.956,0,0,1-10.674,8.467c2.145-8.316,8.487-33.86,12.213-58.862,7.678,1.523,11.165,3.029,11.866,3.355.16.075.321.143.484.206-2.011,9.072-4.743,19.076-8.131,29.781a2.149,2.149,0,1,0,4.1,1.3c3.494-11.034,6.3-21.346,8.348-30.682a7.879,7.879,0,0,0,1.871-14.884ZM521.15,3957.519a402.256,402.256,0,0,1-13.887-46.845c.154-.062.308-.124.46-.2.591-.274,3.912-1.713,11.226-3.2.216-.045.438-.09.664-.135,3.726,25,10.067,50.533,12.21,58.846a12.948,12.948,0,0,1-10.673-8.467Zm2.7-51.14a209.091,209.091,0,0,1,21.039-2.232c1.62,26.775,4.329,53.892,5.158,61.926H536.287c-1.75-6.707-8.551-33.53-12.441-59.694Zm30.519,59.694c-.767-7.394-3.54-34.955-5.185-62.154,4.9-.224,10.318-.355,16.307-.355s11.423.128,16.336.349c-1.646,27.2-4.42,54.765-5.187,62.16Zm40.35,0H580.957c.83-8.036,3.54-35.159,5.159-61.936a206.858,206.858,0,0,1,21.042,2.223c-3.89,26.171-10.694,53-12.443,59.713Zm0,0"></path></g><circle class="d" cx="2.5" cy="2.5" r="2.5" transform="translate(537 3838)"></circle><circle class="d" cx="2.5" cy="2.5" r="2.5" transform="translate(562 3842)"></circle><circle class="d" cx="2.5" cy="2.5" r="2.5" transform="translate(538 3856)"></circle><circle class="d" cx="2.5" cy="2.5" r="2.5" transform="translate(516 3881)"></circle><circle class="d" cx="2.5" cy="2.5" r="2.5" transform="translate(572 3881)"></circle><circle class="d" cx="2.5" cy="2.5" r="2.5" transform="translate(615 3878)"></circle><circle class="e" cx="9.5" cy="9.5" r="9.5" transform="translate(517 3858)"></circle><circle class="e" cx="5.5" cy="5.5" r="5.5" transform="translate(553 3858)"></circle><circle class="e" cx="10.5" cy="10.5" r="10.5" transform="translate(572 3836)"></circle><circle class="e" cx="8.5" cy="8.5" r="8.5" transform="translate(586 3868)"></circle></g></svg>