<svg xmlns="http://www.w3.org/2000/svg" xmlns:xlink="http://www.w3.org/1999/xlink" width="266" height="266" viewBox="0 0 266 266"><defs><style>.a{fill:url(#a);}.b{fill:#761f93;}</style><radialGradient id="a" cx="0.5" cy="0.5" r="0.5" gradientUnits="objectBoundingBox"><stop offset="0" stop-color="#fff"></stop><stop offset="1" stop-color="#e2e2e2"></stop></radialGradient></defs><g transform="translate(-1225.5 -3764)"><circle class="a" cx="133" cy="133" r="133" transform="translate(1225.5 3764)"></circle><path d="M1431.471,3828.894v-4.865h-70.539a24.352,24.352,0,0,0-24.323,24.324v2.432h-4.865a2.434,2.434,0,0,0-2.214,1.426l-22.311,49.084a24.709,24.709,0,0,0-2.231,10.3,19.351,19.351,0,0,0,2.6,9.73h-22.063v4.864h14.594v38.918h-14.594v4.865H1353a7.943,7.943,0,0,0,7.907-7.3h21.92a2.433,2.433,0,0,0,2.4-2.062l4.547-29.559h2.778a19.483,19.483,0,0,0,19.459-19.459,24.709,24.709,0,0,0-2.231-10.3l-16.325-35.916h38.015v-4.864h-29.189v-31.621Zm-121.618,82.7a19.855,19.855,0,0,1,1.8-8.286l21.661-47.658h3.3a9.682,9.682,0,0,0,2.586,6.6,7.292,7.292,0,0,0,4.711,12.863h29.188a7.292,7.292,0,0,0,4.711-12.863,9.682,9.682,0,0,0,2.586-6.6h3.3l6.191,13.622-14.556,32.023a24.709,24.709,0,0,0-2.231,10.3,19.413,19.413,0,0,0,6.608,14.594h-38.974a8.3,8.3,0,0,0-7.551-4.864h-19.606a14.5,14.5,0,0,1-3.718-9.73Zm63.241-46.215a2.432,2.432,0,0,1,0,4.865h-29.188a2.432,2.432,0,0,1,0-4.865Zm8.083,36.486,2.918,7.3h-5.984a19.828,19.828,0,0,1,1.644-5.854l.655-1.443Zm8.944,24.117a14.628,14.628,0,0,1-11.956-11.956h11.956Zm-64.078,15.721.364-.157.832,5.409-.774-.206a2.721,2.721,0,0,1-2.018-2.625,2.63,2.63,0,0,1,1.6-2.421Zm6.328,6.621-1.346-8.756,5.421-2.325a8.278,8.278,0,0,0,4.9-6.19h10.2l3.592,23.347c-.034-.01-.064-.021-.1-.03ZM1353,3965.106h-48.009v-38.918h28.189a3.431,3.431,0,0,1,1.353,6.585l-10.4,4.457a7.494,7.494,0,0,0-4.545,6.894,7.592,7.592,0,0,0,5.628,7.325l28.579,7.62a3.07,3.07,0,0,1-.792,6.037Zm27.74-7.3h-20.15l-4.117-26.756h28.384Zm26.41-46.215a14.614,14.614,0,0,1-12.162,14.388v-14.388a2.432,2.432,0,0,0-2.432-2.432h-3.218l-4.253-10.632a2.431,2.431,0,0,0-2.258-1.53h-.2l9.932-21.851,12.8,28.159a19.855,19.855,0,0,1,1.8,8.286Zm-9.729-51.079h-6.173l-3.775-8.3a2.434,2.434,0,0,0-2.214-1.426h-4.865v-2.432a4.87,4.87,0,0,1,4.865-4.865h2.432v-4.865h-2.432a9.741,9.741,0,0,0-9.73,9.73v7.3a4.87,4.87,0,0,1-4.864,4.865v-9.155a20.7,20.7,0,0,1,2.176-9.216l-4.352-2.176a25.61,25.61,0,0,0-2.689,11.392v9.155h-4.865v-9.155a20.73,20.73,0,0,1,2.176-9.216l-4.351-2.176a25.6,25.6,0,0,0-2.689,11.392v9.155H1351.2v-9.155a20.7,20.7,0,0,1,2.176-9.216l-4.352-2.176a25.608,25.608,0,0,0-2.689,11.392v9.155a4.87,4.87,0,0,1-4.864-4.865v-7.3a19.482,19.482,0,0,1,19.458-19.459h36.486Zm0,0"></path><circle class="b" cx="3.5" cy="3.5" r="3.5" transform="translate(1337 3909)"></circle><circle class="b" cx="3.5" cy="3.5" r="3.5" transform="translate(1333 3885)"></circle><circle class="b" cx="1.5" cy="1.5" r="1.5" transform="translate(1330 3903)"></circle><circle class="b" cx="1.5" cy="1.5" r="1.5" transform="translate(1355 3908)"></circle><circle class="b" cx="1.5" cy="1.5" r="1.5" transform="translate(1363 3888)"></circle></g></svg>